<svg width="302" height="29" viewBox="0 0 302 29" fill="none" xmlns="http://www.w3.org/2000/svg">
<path d="M161.625 1.05713H162.662V28.1403H161.625V1.05713Z" fill="#ED1C24"/>
<path d="M43.7264 1.10382C44.0579 1.04639 44.4756 1.01767 44.9658 1.01767C45.456 1.01767 45.8584 1.04639 46.1906 1.10382L40.974 10.2972C40.6418 10.3546 40.238 10.3819 39.7485 10.3819C39.259 10.3819 38.8413 10.3532 38.5091 10.2972L40.3967 6.98741L37.0532 1.10454C37.3846 1.04711 37.8024 1.01839 38.2926 1.01839C38.7828 1.01839 39.1866 1.04711 39.518 1.10454L41.6222 5.00803L43.7264 1.10382ZM55.2834 1.10382C56.048 0.976028 56.8125 0.976028 57.5756 1.10382V10.2972C56.8118 10.4242 56.048 10.4242 55.2841 10.2972V6.5911H51.4064V10.2957C50.6433 10.4235 49.8795 10.4235 49.1164 10.2957V1.10454C49.8795 0.976746 50.6433 0.976746 51.4064 1.10454V4.7108H55.2841L55.2834 1.10382ZM69.4786 10.2972C68.7148 10.4242 67.951 10.4242 67.1864 10.2972V4.90895L62.8185 10.2972C62.2281 10.3962 61.623 10.3962 61.0187 10.2972V1.10382C61.7811 0.976028 62.5449 0.976028 63.3087 1.10382V6.49203L67.6774 1.10382C68.2685 1.00475 68.8743 1.00475 69.4794 1.10382L69.4786 10.2972ZM76.9282 1.08946C77.8354 1.08946 78.5714 1.31562 79.1341 1.76864C79.6952 2.22095 79.9828 2.80249 79.9828 3.50895C79.9828 4.44228 79.5511 5.12075 78.701 5.54505C79.1473 5.74321 79.5079 6.02608 79.7669 6.39367C80.0267 6.76126 80.1562 7.19992 80.1562 7.69531C80.1562 8.50085 79.8679 9.13839 79.2928 9.60505C78.7148 10.0717 77.9364 10.2972 76.9567 10.2972H72.8939V1.10311L76.9282 1.08946ZM75.1993 4.88023H76.6699C76.9728 4.88023 77.2186 4.79552 77.4052 4.62608C77.5925 4.45664 77.6788 4.21685 77.6788 3.91962C77.6788 3.28352 77.3467 2.97193 76.6692 2.97193H75.1986V4.88167L75.1993 4.88023ZM75.1993 8.41541H76.8141C77.4916 8.41541 77.8237 8.08946 77.8237 7.42464C77.8237 6.78854 77.463 6.46259 76.7277 6.46259H75.1986L75.1993 8.41541ZM89.6536 8.41613C89.7692 9.03787 89.7692 9.66034 89.6536 10.2972H83.1244V1.10311H89.6536C89.7692 1.73921 89.7692 2.36167 89.6536 2.98413H85.432V4.70936H89.1634C89.279 5.34618 89.279 5.96793 89.1634 6.59039H85.432V8.41398H89.6536V8.41613ZM96.3539 1.10382C97.406 1.10382 98.2562 1.38598 98.9052 1.951C99.5541 2.51818 99.8855 3.267 99.8855 4.18669C99.8855 5.10567 99.5541 5.85449 98.9052 6.42095C98.2562 6.98669 97.4053 7.26813 96.3539 7.26813H94.9843V10.2957C94.2205 10.4221 93.4574 10.4221 92.6943 10.2957V1.10311L96.3539 1.10382ZM96.3393 5.36126C96.6707 5.36126 96.9597 5.26218 97.1895 5.06403C97.4207 4.86731 97.5363 4.57008 97.5363 4.17377C97.5363 3.7789 97.4214 3.48095 97.1902 3.28352C96.9604 3.08536 96.6854 2.98557 96.3547 2.98557H94.985V5.39069L96.34 5.36198L96.3393 5.36126ZM108.042 8.59992C108.891 8.59992 109.799 8.30269 110.765 7.72259C110.837 7.83603 110.866 8.16054 110.851 8.71336C110.837 9.26474 110.807 9.61798 110.75 9.77377C109.973 10.2404 109.022 10.4817 107.897 10.4817C106.297 10.4817 105.014 10.015 104.049 9.09603C103.083 8.17705 102.607 7.03049 102.607 5.67285C102.607 4.31521 103.097 3.17008 104.063 2.25039C105.029 1.33141 106.312 0.864746 107.912 0.864746C109.035 0.864746 109.987 1.10598 110.765 1.57193C110.824 1.72772 110.851 2.08167 110.866 2.63305C110.881 3.18444 110.851 3.50895 110.78 3.62382C109.814 3.04228 108.907 2.74577 108.056 2.74577C107.176 2.74577 106.44 3.015 105.85 3.55203C105.259 4.09049 104.97 4.79695 104.97 5.68792C104.97 6.57818 105.259 7.28608 105.85 7.82382C106.44 8.36085 107.176 8.62936 108.055 8.62936L108.04 8.60064L108.042 8.59992ZM122.726 10.2972C121.963 10.4242 121.199 10.4242 120.434 10.2972V4.90895L116.066 10.2972C115.477 10.3962 114.872 10.3962 114.267 10.2972V1.10382C115.03 0.976028 115.794 0.976028 116.557 1.10382V6.49203L120.925 1.10382C121.516 1.00475 122.122 1.00475 122.727 1.10382L122.726 10.2972ZM133.044 1.10382C133.159 1.73993 133.159 2.36239 133.044 2.98485H130.507V10.2972C129.743 10.4242 128.979 10.4242 128.215 10.2972V2.98485H125.679C125.562 2.34803 125.562 1.72628 125.679 1.10382H133.044ZM142.584 8.41613C142.699 9.03787 142.699 9.66034 142.584 10.2972H136.055V1.10311H142.584C142.699 1.73921 142.699 2.36167 142.584 2.98413H138.361V4.70936H142.094C142.209 5.34618 142.209 5.96793 142.094 6.59039H138.361V8.41398H142.584V8.41613ZM152.528 1.10382C152.643 1.73993 152.643 2.36239 152.528 2.98485H149.991V10.2972C149.227 10.4242 148.463 10.4242 147.7 10.2972V2.98485H145.164C145.047 2.34803 145.047 1.72628 145.164 1.10382H152.528ZM45.0492 25.4057C46.3808 25.4057 47.8046 24.9404 49.3176 24.0315C49.4303 24.2081 49.4756 24.7186 49.4537 25.5823C49.4303 26.446 49.3857 27.0017 49.2949 27.2443C48.0753 27.9752 46.5849 28.3521 44.8232 28.3521C42.3166 28.3521 40.3068 27.6198 38.793 26.1803C37.2807 24.7394 36.5352 22.9438 36.5352 20.8173C36.5352 18.6907 37.3034 16.8944 38.8157 15.4542C40.3302 14.0133 42.3407 13.2817 44.8473 13.2817C46.6091 13.2817 48.0994 13.6586 49.3191 14.3902C49.4091 14.6343 49.4552 15.1885 49.4771 16.053C49.4991 16.9174 49.4552 17.4271 49.341 17.6037C47.8287 16.6948 46.4057 16.2303 45.0726 16.2303C43.695 16.2303 42.5434 16.6517 41.6178 17.4939C40.6916 18.3353 40.2402 19.4431 40.2402 20.8395C40.2402 22.2359 40.6916 23.3452 41.6178 24.1866C42.5434 25.0287 43.6957 25.4502 45.0726 25.4502L45.0507 25.4071L45.0492 25.4057ZM65.8044 28.0642C64.6067 28.2631 63.4097 28.2631 62.212 28.0642V19.6212L55.369 28.0642C54.4435 28.22 53.496 28.22 52.5463 28.0642V13.6593C53.7426 13.4597 54.9388 13.4597 56.1365 13.6593V22.1024L62.9802 13.6593C63.9065 13.5042 64.8547 13.5042 65.8044 13.6593V28.0642ZM78.5861 13.6593C79.783 13.4597 80.9785 13.4597 82.1762 13.6593V28.0642C80.9793 28.2631 79.7838 28.2631 78.5853 28.0642V22.2582H72.5091V28.0642C71.3129 28.2631 70.1166 28.2631 68.9189 28.0642V13.6593C70.1159 13.4597 71.3129 13.4597 72.5091 13.6593V19.311H78.5846V13.6593H78.5861ZM95.5908 25.1156C95.7715 26.092 95.7715 27.0684 95.5908 28.0635H85.3611V13.6593H95.5908C95.7715 14.6573 95.7715 15.6315 95.5908 16.6058H88.9739V19.3103H94.8233C95.0041 20.3082 95.0041 21.2825 94.8233 22.2582H88.9739V25.1156H95.5908ZM103.833 13.6586C105.483 13.6586 106.815 14.1023 107.831 14.989C108.848 15.8756 109.368 17.0495 109.368 18.4904C109.368 19.9306 108.848 21.1052 107.831 21.9918C106.814 22.8785 105.483 23.32 103.833 23.32H101.688V28.0628C100.491 28.2638 99.2944 28.2638 98.096 28.0628V13.6586H103.833ZM103.812 20.3298C104.331 20.3298 104.782 20.1747 105.143 19.8653C105.505 19.5544 105.686 19.0899 105.686 18.4688C105.686 17.8478 105.505 17.3833 105.145 17.0732C104.782 16.7623 104.353 16.6065 103.833 16.6065H101.688V20.3757L103.812 20.3298ZM121.63 13.6593C121.811 14.6573 121.811 15.6322 121.63 16.6058H115.578V28.0642C114.38 28.2631 113.183 28.2631 111.985 28.0642V13.6593H121.63ZM137.303 28.0642C136.106 28.2631 134.911 28.2631 133.712 28.0642V19.6212L126.869 28.0642C125.944 28.22 124.995 28.22 124.046 28.0642V13.6593C125.243 13.4597 126.439 13.4597 127.637 13.6593V22.1024L134.48 13.6593C135.406 13.5042 136.355 13.5042 137.303 13.6593V28.0642ZM151.689 28.042C150.492 28.2416 149.295 28.2416 148.097 28.042V23.1671H146.697L143.468 28.042C142.948 28.131 142.294 28.1755 141.503 28.1755C140.713 28.1755 140.058 28.131 139.538 28.042L143.106 22.6358C142.225 22.2582 141.547 21.7039 141.051 20.9731C140.554 20.2407 140.305 19.4007 140.305 18.4459C140.305 17.0272 140.802 15.8756 141.796 14.989C142.79 14.1023 144.123 13.6593 145.771 13.6593H151.71L151.688 28.042H151.689ZM145.794 16.5835C145.275 16.5835 144.845 16.74 144.485 17.0487C144.123 17.3596 143.943 17.8026 143.943 18.4014C143.943 19.0001 144.123 19.4424 144.485 19.7533C144.845 20.0656 145.297 20.2199 145.816 20.2199H148.075V16.585H145.794V16.5835Z" fill="black"/>
<path d="M0.000976562 28.1579H27.635V1.04102H0.000976562V28.1579ZM24.1816 24.7671H3.45577V4.42973H24.1816V24.7671ZM17.1638 23.604L7.98754 14.5995L17.1638 5.59281V10.3866L12.8712 14.5988L17.1645 18.811V23.604H17.1638Z" fill="#ED1C24"/>
<path d="M173.393 1.58418H175.969V8.88018L181.313 1.58418H183.745V12.7842H181.185V5.50418L175.841 12.7842H173.393V1.58418ZM196.806 1.58418V12.7842H194.214V8.19218H189.126V12.7842H186.534V1.58418H189.126V6.00018H194.214V1.58418H196.806ZM204.908 12.9762C203.766 12.9762 202.732 12.7308 201.804 12.2402C200.886 11.7388 200.161 11.0508 199.628 10.1762C199.105 9.29085 198.844 8.29351 198.844 7.18418C198.844 6.07485 199.105 5.08285 199.628 4.20818C200.161 3.32285 200.886 2.63485 201.804 2.14418C202.732 1.64285 203.772 1.39218 204.924 1.39218C205.894 1.39218 206.769 1.56285 207.548 1.90418C208.337 2.24551 208.998 2.73618 209.532 3.37618L207.868 4.91218C207.11 4.03751 206.172 3.60018 205.052 3.60018C204.358 3.60018 203.74 3.75485 203.196 4.06418C202.652 4.36285 202.225 4.78418 201.916 5.32818C201.617 5.87218 201.468 6.49085 201.468 7.18418C201.468 7.87751 201.617 8.49618 201.916 9.04018C202.225 9.58418 202.652 10.0108 203.196 10.3202C203.74 10.6188 204.358 10.7682 205.052 10.7682C206.172 10.7682 207.11 10.3255 207.868 9.44018L209.532 10.9762C208.998 11.6268 208.337 12.1228 207.548 12.4642C206.758 12.8055 205.878 12.9762 204.908 12.9762ZM219.672 3.69618H216.088V12.7842H213.528V3.69618H209.96V1.58418H219.672V3.69618ZM221.299 1.58418H223.875V8.88018L229.219 1.58418H231.651V12.7842H229.091V5.50418L223.747 12.7842H221.299V1.58418ZM243 3.69618H239.416V12.7842H236.856V3.69618H233.288V1.58418H243V3.69618ZM254.255 1.58418L249.487 10.4482C249.028 11.3015 248.474 11.9468 247.823 12.3842C247.183 12.8215 246.484 13.0402 245.727 13.0402C245.14 13.0402 244.532 12.9122 243.903 12.6562L244.527 10.6882C244.975 10.8268 245.348 10.8962 245.647 10.8962C245.967 10.8962 246.255 10.8215 246.511 10.6722C246.767 10.5122 247.002 10.2668 247.215 9.93618L247.311 9.80818L242.895 1.58418H245.663L248.639 7.60018L251.711 1.58418H254.255ZM264.078 3.69618H260.494V12.7842H257.934V3.69618H254.366V1.58418H264.078V3.69618ZM173.393 16.5842H182.433V18.6482H175.969V20.9522H179.073C180.428 20.9522 181.457 21.2348 182.161 21.8002C182.876 22.3655 183.233 23.1815 183.233 24.2482C183.233 25.3682 182.838 26.2375 182.049 26.8562C181.26 27.4748 180.145 27.7842 178.705 27.7842H173.393V16.5842ZM178.561 25.8642C179.222 25.8642 179.729 25.7362 180.081 25.4802C180.433 25.2135 180.609 24.8295 180.609 24.3282C180.609 23.3468 179.926 22.8562 178.561 22.8562H175.969V25.8642H178.561ZM185.205 16.5842H187.781V23.8802L193.125 16.5842H195.557V27.7842H192.997V20.5042L187.653 27.7842H185.205V16.5842ZM204.714 21.9442C205.365 22.1682 205.871 22.5202 206.234 23.0002C206.607 23.4695 206.794 24.0188 206.794 24.6482C206.794 25.3308 206.57 25.9228 206.122 26.4242C205.674 26.9255 205.066 27.3095 204.298 27.5762C203.541 27.8428 202.709 27.9762 201.802 27.9762C201.034 27.9762 200.266 27.8802 199.498 27.6882C198.741 27.4962 198.021 27.2028 197.338 26.8082L198.138 24.9522C198.629 25.2508 199.167 25.4802 199.754 25.6402C200.351 25.7895 200.933 25.8642 201.498 25.8642C202.266 25.8642 202.901 25.7255 203.402 25.4482C203.914 25.1708 204.17 24.7815 204.17 24.2802C204.17 23.8642 203.994 23.5495 203.642 23.3362C203.301 23.1228 202.831 23.0162 202.234 23.0162H199.498V21.0642H202.042C202.565 21.0642 202.97 20.9575 203.258 20.7442C203.557 20.5308 203.706 20.2375 203.706 19.8642C203.706 19.4268 203.493 19.0855 203.066 18.8402C202.65 18.5948 202.111 18.4722 201.45 18.4722C200.959 18.4722 200.453 18.5415 199.93 18.6802C199.407 18.8082 198.911 19.0055 198.442 19.2722L197.658 17.2562C198.842 16.6482 200.122 16.3442 201.498 16.3442C202.373 16.3442 203.178 16.4722 203.914 16.7282C204.65 16.9842 205.237 17.3575 205.674 17.8482C206.111 18.3388 206.33 18.9095 206.33 19.5602C206.33 20.0935 206.186 20.5682 205.898 20.9842C205.61 21.4002 205.215 21.7202 204.714 21.9442ZM219.118 16.5842V27.7842H216.526V23.1922H211.438V27.7842H208.846V16.5842H211.438V21.0002H216.526V16.5842H219.118ZM230.596 25.7042V27.7842H221.924V16.5842H230.388V18.6642H224.5V21.0962H229.7V23.1122H224.5V25.7042H230.596ZM237.955 27.9762C236.813 27.9762 235.779 27.7308 234.851 27.2402C233.933 26.7388 233.208 26.0508 232.675 25.1762C232.152 24.2908 231.891 23.2935 231.891 22.1842C231.891 21.0748 232.152 20.0828 232.675 19.2082C233.208 18.3228 233.933 17.6348 234.851 17.1442C235.779 16.6428 236.819 16.3922 237.971 16.3922C238.941 16.3922 239.816 16.5628 240.595 16.9042C241.384 17.2455 242.045 17.7362 242.579 18.3762L240.915 19.9122C240.157 19.0375 239.219 18.6002 238.099 18.6002C237.405 18.6002 236.787 18.7548 236.243 19.0642C235.699 19.3628 235.272 19.7842 234.963 20.3282C234.664 20.8722 234.515 21.4908 234.515 22.1842C234.515 22.8775 234.664 23.4962 234.963 24.0402C235.272 24.5842 235.699 25.0108 236.243 25.3202C236.787 25.6188 237.405 25.7682 238.099 25.7682C239.219 25.7682 240.157 25.3255 240.915 24.4402L242.579 25.9762C242.045 26.6268 241.384 27.1228 240.595 27.4642C239.805 27.8055 238.925 27.9762 237.955 27.9762ZM251.633 25.3842H246.433L245.441 27.7842H242.785L247.777 16.5842H250.337L255.345 27.7842H252.625L251.633 25.3842ZM250.817 23.4162L249.041 19.1282L247.265 23.4162H250.817Z" fill="black"/>
</svg>
