<svg width="38" height="39" viewBox="0 0 38 39" fill="none" xmlns="http://www.w3.org/2000/svg">
<path d="M28.9194 21.8758C28.8514 21.8431 26.3057 20.5895 25.8533 20.4267C25.6686 20.3604 25.4708 20.2957 25.2604 20.2957C24.9166 20.2957 24.6279 20.467 24.4029 20.8035C24.1487 21.1815 23.3788 22.0813 23.141 22.3501C23.1099 22.3856 23.0675 22.428 23.0421 22.428C23.0193 22.428 22.6254 22.2658 22.5061 22.214C19.7753 21.0277 17.7025 18.1752 17.4183 17.6941C17.3777 17.625 17.376 17.5936 17.3756 17.5936C17.3856 17.5569 17.4774 17.4649 17.5248 17.4174C17.6635 17.2802 17.8137 17.0994 17.959 16.9244C18.0279 16.8415 18.0968 16.7586 18.1645 16.6803C18.3753 16.435 18.4692 16.2445 18.5781 16.0239L18.6351 15.9093C18.9008 15.3813 18.6739 14.9357 18.6005 14.7919C18.5403 14.6715 17.4654 12.0773 17.3511 11.8047C17.0763 11.147 16.7132 10.8408 16.2086 10.8408C16.1617 10.8408 16.2086 10.8408 16.0122 10.8491C15.7731 10.8592 14.471 11.0306 13.8953 11.3935C13.2848 11.7784 12.252 13.0053 12.252 15.1631C12.252 17.105 13.4843 18.9386 14.0134 19.636C14.0266 19.6535 14.0507 19.6893 14.0858 19.7405C16.1121 22.6998 18.6381 24.8929 21.1989 25.9158C23.6642 26.9006 24.8316 27.0144 25.4953 27.0144C25.4954 27.0144 25.4954 27.0144 25.4954 27.0144C25.7743 27.0144 25.9975 26.9925 26.1945 26.9731L26.3194 26.9612C27.1711 26.8857 29.0426 25.9159 29.4683 24.7329C29.8037 23.8011 29.8921 22.783 29.669 22.4135C29.5162 22.1623 29.2528 22.0358 28.9194 21.8758Z" fill="black"/>
<path d="M20.8505 1.81104C11.3933 1.81104 3.69937 9.44717 3.69937 18.8332C3.69937 21.869 4.5118 24.8406 6.05084 27.4414L3.10506 36.1309C3.05019 36.2929 3.09101 36.472 3.21084 36.594C3.29734 36.6823 3.41469 36.7299 3.53452 36.7299C3.58044 36.7299 3.62669 36.723 3.67182 36.7086L12.7326 33.8294C15.2121 35.1542 18.0144 35.8535 20.8506 35.8535C30.3068 35.8536 37.9999 28.2182 37.9999 18.8332C37.9999 9.44717 30.3068 1.81104 20.8505 1.81104ZM20.8505 32.3077C18.1818 32.3077 15.597 31.5371 13.3751 30.0791C13.3004 30.0301 13.2136 30.0049 13.1263 30.0049C13.0802 30.0049 13.0339 30.0119 12.9889 30.0262L8.45004 31.469L9.91527 27.1462C9.96266 27.0063 9.93897 26.852 9.85167 26.7327C8.15969 24.4208 7.26529 21.6893 7.26529 18.8332C7.26529 11.4024 13.3595 5.35689 20.8503 5.35689C28.3402 5.35689 34.4338 11.4024 34.4338 18.8332C34.4339 26.2631 28.3404 32.3077 20.8505 32.3077Z" fill="black"/>
</svg>
